<svg xmlns="http://www.w3.org/2000/svg" xmlns:xlink="http://www.w3.org/1999/xlink" width="500" zoomAndPan="magnify" viewBox="0 0 375 374.999991" height="500" preserveAspectRatio="xMidYMid meet" version="1.0"><defs><clipPath id="a1f586ecc8"><path d="M 4.617188 4.683594 L 280 4.683594 L 280 280 L 4.617188 280 Z M 4.617188 4.683594 " clip-rule="nonzero"/></clipPath><clipPath id="bfca949525"><path d="M 17.21875 272.480469 L 98.96875 272.480469 L 98.96875 354.230469 L 17.21875 354.230469 Z M 17.21875 272.480469 " clip-rule="nonzero"/></clipPath><clipPath id="77a2a356b8"><path d="M 291.222656 15.269531 L 361.722656 15.269531 L 361.722656 85.769531 L 291.222656 85.769531 Z M 291.222656 15.269531 " clip-rule="nonzero"/></clipPath><clipPath id="43be226705"><path d="M 282.847656 182.359375 L 326.347656 182.359375 L 326.347656 225.859375 L 282.847656 225.859375 Z M 282.847656 182.359375 " clip-rule="nonzero"/></clipPath></defs><path fill="#ff6600" d="M 216.039062 238.761719 L 238.683594 216.117188 L 284.660156 262.089844 L 262.015625 284.734375 Z M 216.039062 238.761719 " fill-opacity="1" fill-rule="nonzero"/><path fill="#ff6600" d="M 357.265625 309.003906 C 367.269531 319.007812 367.269531 335.246094 357.265625 345.265625 L 345.183594 357.335938 C 335.164062 367.355469 318.941406 367.355469 308.933594 357.335938 L 244.183594 292.570312 C 234.164062 282.550781 234.164062 266.328125 244.167969 256.320312 L 256.25 244.238281 C 266.257812 234.230469 282.507812 234.230469 292.515625 244.238281 Z M 357.265625 309.003906 " fill-opacity="1" fill-rule="nonzero"/><g clip-path="url(#a1f586ecc8)"><path fill="#ff6600" d="M 142.144531 4.515625 C 66.082031 4.515625 4.449219 66.152344 4.449219 142.214844 C 4.449219 218.277344 66.082031 279.925781 142.144531 279.925781 C 218.207031 279.925781 279.855469 218.277344 279.855469 142.214844 C 279.855469 66.152344 218.207031 4.515625 142.144531 4.515625 Z M 142.144531 254.441406 C 80.144531 254.441406 29.90625 204.214844 29.90625 142.214844 C 29.90625 80.214844 80.144531 29.988281 142.144531 29.988281 C 204.144531 29.988281 254.386719 80.214844 254.386719 142.214844 C 254.386719 204.214844 204.144531 254.441406 142.144531 254.441406 Z M 142.144531 254.441406 " fill-opacity="1" fill-rule="nonzero"/></g><path fill="#ff6600" d="M 170.378906 210.375 C 115.453125 210.375 70.898438 165.832031 70.898438 110.890625 C 70.898438 109.429688 71.050781 108 71.121094 106.539062 C 63.867188 118.273438 59.613281 132.066406 59.613281 146.859375 C 59.613281 189.339844 94.050781 223.761719 136.519531 223.761719 C 152.921875 223.761719 168.078125 218.597656 180.582031 209.855469 C 177.230469 210.21875 173.820312 210.375 170.378906 210.375 Z M 170.378906 210.375 " fill-opacity="1" fill-rule="nonzero"/><g clip-path="url(#bfca949525)"><path fill="#ff6600" d="M 17.21875 313.40625 C 52.710938 318.851562 52.710938 318.851562 58.15625 354.34375 C 63.585938 318.851562 63.585938 318.851562 99.078125 313.40625 C 63.585938 307.976562 63.585938 307.976562 58.15625 272.484375 C 52.710938 307.976562 52.710938 307.976562 17.21875 313.40625 " fill-opacity="1" fill-rule="nonzero"/></g><g clip-path="url(#77a2a356b8)"><path fill="#ff6600" d="M 291.222656 50.40625 C 321.699219 55.082031 321.699219 55.082031 326.371094 85.554688 C 331.035156 55.082031 331.035156 55.082031 361.507812 50.40625 C 331.035156 45.746094 331.035156 45.746094 326.371094 15.273438 C 321.699219 45.746094 321.699219 45.746094 291.222656 50.40625 " fill-opacity="1" fill-rule="nonzero"/></g><g clip-path="url(#43be226705)"><path fill="#ff6600" d="M 282.847656 204.109375 C 301.714844 207.003906 301.714844 207.003906 304.605469 225.867188 C 307.492188 207.003906 307.492188 207.003906 326.359375 204.109375 C 307.492188 201.222656 307.492188 201.222656 304.605469 182.359375 C 301.714844 201.222656 301.714844 201.222656 282.847656 204.109375 " fill-opacity="1" fill-rule="nonzero"/></g></svg>